<?xml version="1.0" standalone="no"?>
<!DOCTYPE svg PUBLIC "-//W3C//DTD SVG 20010904//EN"
 "http://www.w3.org/TR/2001/REC-SVG-20010904/DTD/svg10.dtd">
<svg version="1.0" xmlns="http://www.w3.org/2000/svg"
 width="580.000000pt" height="580.000000pt" viewBox="0 0 580.000000 580.000000"
 preserveAspectRatio="xMidYMid meet">
<metadata>
Created by potrace 1.11, written by Peter Selinger 2001-2013
</metadata>
<g transform="translate(0.000000,580.000000) scale(0.100000,-0.100000)"
fill="#000000" stroke="none">
<path d="M2759 5796 c-2 -2 -44 -6 -94 -10 -49 -3 -101 -8 -115 -10 -14 -3
-45 -7 -70 -10 -184 -24 -418 -85 -620 -163 -614 -236 -1123 -669 -1465 -1248
-179 -302 -313 -689 -361 -1035 -3 -25 -8 -54 -10 -65 -10 -46 -19 -219 -19
-350 0 -217 20 -416 61 -605 35 -162 116 -418 169 -535 135 -299 266 -513 445
-727 80 -96 313 -323 416 -405 303 -241 628 -407 1024 -523 41 -12 83 -24 95
-26 11 -2 30 -6 43 -9 12 -3 32 -7 45 -10 12 -2 35 -7 50 -11 16 -3 38 -7 50
-9 12 -2 40 -6 62 -9 143 -22 263 -30 435 -31 145 0 304 9 359 20 14 2 45 7
70 10 25 3 55 7 66 9 251 51 400 94 590 171 570 229 1069 654 1395 1190 49 81
156 290 195 385 92 218 158 470 200 755 36 251 21 647 -36 930 -149 743 -602
1415 -1241 1838 -380 252 -810 411 -1253 463 -33 3 -69 8 -80 11 -24 5 -401
13 -406 9z m416 -169 c11 -2 52 -8 90 -11 172 -17 488 -102 690 -187 501 -208
929 -562 1234 -1020 216 -326 365 -716 428 -1119 25 -166 25 -597 0 -765 -78
-508 -267 -949 -573 -1335 -87 -110 -325 -348 -434 -434 -504 -398 -1090 -599
-1735 -595 -240 1 -351 13 -567 60 -928 202 -1689 879 -1998 1776 -137 398
-179 789 -129 1212 33 282 79 472 166 691 244 614 696 1119 1273 1423 313 165
673 273 1010 303 41 3 77 8 80 11 6 5 440 -3 465 -10z"/>
<path d="M2200 4072 c-39 -19 -80 -74 -80 -107 0 -12 101 -361 226 -776 124
-415 266 -891 316 -1059 50 -168 100 -323 112 -345 42 -79 132 -82 181 -6 13
20 68 178 123 351 55 173 166 520 247 770 366 1137 340 1049 325 1096 -16 48
-66 84 -119 84 -33 0 -48 -7 -76 -32 -38 -35 -53 -80 -280 -838 -37 -124 -84
-279 -105 -345 -21 -66 -55 -176 -75 -245 -77 -259 -91 -301 -100 -301 -9 0
-37 87 -120 366 -18 63 -314 1043 -382 1270 -20 65 -48 104 -89 121 -44 18
-62 18 -104 -4z"/>
</g>
</svg>
